<svg width="405" height="96" viewBox="0 0 405 96" fill="none" xmlns="http://www.w3.org/2000/svg">
<path fill-rule="evenodd" clip-rule="evenodd" d="M339.8 70.4C323.6 70.4 317.5 63.8 317.5 52.4H327.7C327.7 59.3 331.1 61.5 340.1 61.5C346.7 61.5 348.8 60 348.8 57.5C348.8 54.6058 344.57 53.1731 339.077 51.313C338.307 51.0521 337.512 50.7828 336.7 50.5L336.406 50.401C327.042 47.2478 319.5 44.7081 319.5 35.9C319.5 28.2 325.6 24 337.2 24C351 24 357.2 31 357.2 40H347C347 34.5 342.8 33 337.2 33C332.6 33 329.7 34 329.7 36.3C329.7 38.3 330.8 39.1 338 41.5C338.515 41.6737 339.046 41.8505 339.591 42.0315C347.826 44.7689 359 48.483 359 57.3C359 65.1 353.6 70.4 339.8 70.4ZM271.7 40.5C271.7 54.2 263 56.2999 251.6 56.2999H245.7V69.7H235.5V24.7H251.6C263 24.7999 271.7 26.8999 271.7 40.5ZM261.5 40.5C261.5 34.2999 258.4 33.7 252.3 33.7H245.7V47.3999H252.3C258.4 47.3999 261.5 46.7999 261.5 40.5ZM112.1 24.8H132.2L145.8 67.3H148.4L146.5 60.9V24.8H156.6V69.8H136.5L122.9 27.3H120.3L122.2 33.7001V69.8H112V24.8H112.1ZM163 24.8H191.3H195.1H231V33.7001H216.3V69.8H206.1V33.7001H195.1H191.3H173.2V45.9L193.6 44.6001V53.7001L173.2 55V69.8H163V24.8ZM284.1 55.4H302.4L306.6 69.8H316.9L303.9 24.8H282.8L269.8 69.8H280.1L284.1 55.4ZM294.6 27.3L299.9 46.4H286.6L292 27.3H294.6ZM362.9 52.4C362.9 63.8 369 70.4 385.2 70.4C399 70.4 404.4 65.1 404.4 57.3C404.4 48.483 393.227 44.7689 384.991 42.0315C384.446 41.8505 383.915 41.6737 383.4 41.5C376.2 39.1 375.1 38.3 375.1 36.3C375.1 34 378 33 382.6 33C388.2 33 392.4 34.5 392.4 40H402.6C402.6 31 396.4 24 382.6 24C371 24 364.9 28.2 364.9 35.9C364.9 44.7081 372.442 47.2478 381.806 50.401L382.1 50.5C382.912 50.7828 383.707 51.0521 384.477 51.313C389.97 53.1731 394.2 54.6058 394.2 57.5C394.2 60 392.1 61.5 385.5 61.5C376.5 61.5 373.1 59.3 373.1 52.4H362.9Z" fill="black"/>
<path d="M96 48C82.8437 34.8437 81.9186 32.6852 81.9186 14.0814C63.3148 14.0814 61.1563 13.1563 48 0C34.8437 13.1563 32.6852 14.0814 14.0814 14.0814C14.0814 32.6852 13.1563 34.8437 0 48C13.1563 61.1563 14.0814 63.3148 14.0814 81.9186C32.6852 81.9186 34.8437 82.8437 48 96C61.1563 82.8437 63.3148 81.9186 81.9186 81.9186C82.0214 63.3148 82.9465 61.1563 96 48Z" fill="black"/>
<path d="M58.8696 28V64.9893H55.8261V58.1075L46.0435 28H28V68H37.1304V31.0108H40.1739V37.7849L49.9565 68H68V28H58.8696Z" fill="white"/>
</svg>
