<svg width="96" height="96" viewBox="0 0 96 96" fill="none" xmlns="http://www.w3.org/2000/svg">
<path d="M96 48C82.8437 34.8437 81.9186 32.6852 81.9186 14.0814C63.3148 14.0814 61.1563 13.1563 48 0C34.8437 13.1563 32.6852 14.0814 14.0814 14.0814C14.0814 32.6852 13.1563 34.8437 0 48C13.1563 61.1563 14.0814 63.3148 14.0814 81.9186C32.6852 81.9186 34.8437 82.8437 48 96C61.1563 82.8437 63.3148 81.9186 81.9186 81.9186C82.0214 63.3148 82.9465 61.1563 96 48Z" fill="black"/>
<path d="M58.8696 28V64.9893H55.8261V58.1075L46.0435 28H28V68H37.1304V31.0108H40.1739V37.7849L49.9565 68H68V28H58.8696Z" fill="white"/>
</svg>
