<svg width="32" height="32" viewBox="0 0 32 32" fill="none" xmlns="http://www.w3.org/2000/svg">
<path d="M27.5305 3.56555L17.5367 10.988L19.3848 6.60887L27.5305 3.56555Z" fill="#E2761B" stroke="#E2761B" stroke-width="0.100439" stroke-linecap="round" stroke-linejoin="round"/>
<path d="M4.45947 3.56549L14.3728 11.0583L12.6152 6.60881L4.45947 3.56549Z" fill="#E4761B" stroke="#E4761B" stroke-width="0.100439" stroke-linecap="round" stroke-linejoin="round"/>
<path d="M23.9347 20.7708L21.273 24.8487L26.9679 26.4155L28.6051 20.8612L23.9347 20.7708Z" fill="#E4761B" stroke="#E4761B" stroke-width="0.100439" stroke-linecap="round" stroke-linejoin="round"/>
<path d="M3.40485 20.8612L5.03196 26.4155L10.7269 24.8487L8.06524 20.7708L3.40485 20.8612Z" fill="#E4761B" stroke="#E4761B" stroke-width="0.100439" stroke-linecap="round" stroke-linejoin="round"/>
<path d="M10.4055 13.8807L8.81854 16.2812L14.4733 16.5323L14.2724 10.4557L10.4055 13.8807Z" fill="#E4761B" stroke="#E4761B" stroke-width="0.100439" stroke-linecap="round" stroke-linejoin="round"/>
<path d="M21.5844 13.8807L17.6673 10.3854L17.5367 16.5323L23.1814 16.2812L21.5844 13.8807Z" fill="#E4761B" stroke="#E4761B" stroke-width="0.100439" stroke-linecap="round" stroke-linejoin="round"/>
<path d="M10.7269 24.8486L14.1217 23.1914L11.1889 20.9014L10.7269 24.8486Z" fill="#E4761B" stroke="#E4761B" stroke-width="0.100439" stroke-linecap="round" stroke-linejoin="round"/>
<path d="M17.8681 23.1914L21.273 24.8486L20.8009 20.9014L17.8681 23.1914Z" fill="#E4761B" stroke="#E4761B" stroke-width="0.100439" stroke-linecap="round" stroke-linejoin="round"/>
<path d="M21.2731 24.8488L17.8682 23.1915L18.1394 25.4112L18.1092 26.3453L21.2731 24.8488Z" fill="#D7C1B3" stroke="#D7C1B3" stroke-width="0.100439" stroke-linecap="round" stroke-linejoin="round"/>
<path d="M10.7269 24.8489L13.8908 26.3454L13.8707 25.4114L14.1218 23.1917L10.7269 24.8489Z" fill="#D7C1B3" stroke="#D7C1B3" stroke-width="0.100439" stroke-linecap="round" stroke-linejoin="round"/>
<path d="M13.941 19.4351L11.1086 18.6014L13.1073 17.6874L13.941 19.4351Z" fill="#233447" stroke="#233447" stroke-width="0.100439" stroke-linecap="round" stroke-linejoin="round"/>
<path d="M18.049 19.4351L18.8826 17.6874L20.8914 18.6014L18.049 19.4351Z" fill="#233447" stroke="#233447" stroke-width="0.100439" stroke-linecap="round" stroke-linejoin="round"/>
<path d="M10.727 24.8487L11.2091 20.7709L8.06531 20.8613L10.727 24.8487Z" fill="#CD6116" stroke="#CD6116" stroke-width="0.100439" stroke-linecap="round" stroke-linejoin="round"/>
<path d="M20.791 20.7709L21.2731 24.8487L23.9347 20.8613L20.791 20.7709Z" fill="#CD6116" stroke="#CD6116" stroke-width="0.100439" stroke-linecap="round" stroke-linejoin="round"/>
<path d="M23.1814 16.2812L17.5367 16.5323L18.059 19.435L18.8927 17.6874L20.9015 18.6014L23.1814 16.2812Z" fill="#CD6116" stroke="#CD6116" stroke-width="0.100439" stroke-linecap="round" stroke-linejoin="round"/>
<path d="M11.1086 18.6014L13.1174 17.6874L13.941 19.435L14.4733 16.5323L8.8186 16.2812L11.1086 18.6014Z" fill="#CD6116" stroke="#CD6116" stroke-width="0.100439" stroke-linecap="round" stroke-linejoin="round"/>
<path d="M8.8186 16.2812L11.189 20.9015L11.1086 18.6014L8.8186 16.2812Z" fill="#E4751F" stroke="#E4751F" stroke-width="0.100439" stroke-linecap="round" stroke-linejoin="round"/>
<path d="M20.9015 18.6014L20.801 20.9015L23.1814 16.2812L20.9015 18.6014Z" fill="#E4751F" stroke="#E4751F" stroke-width="0.100439" stroke-linecap="round" stroke-linejoin="round"/>
<path d="M14.4733 16.5323L13.941 19.435L14.6039 22.86L14.7545 18.3502L14.4733 16.5323Z" fill="#E4751F" stroke="#E4751F" stroke-width="0.100439" stroke-linecap="round" stroke-linejoin="round"/>
<path d="M17.5368 16.5323L17.2656 18.3402L17.3861 22.86L18.059 19.435L17.5368 16.5323Z" fill="#E4751F" stroke="#E4751F" stroke-width="0.100439" stroke-linecap="round" stroke-linejoin="round"/>
<path d="M18.059 19.435L17.386 22.86L17.8682 23.1915L20.801 20.9014L20.9014 18.6014L18.059 19.435Z" fill="#F6851B" stroke="#F6851B" stroke-width="0.100439" stroke-linecap="round" stroke-linejoin="round"/>
<path d="M11.1086 18.6014L11.1889 20.9014L14.1218 23.1915L14.6039 22.86L13.941 19.435L11.1086 18.6014Z" fill="#F6851B" stroke="#F6851B" stroke-width="0.100439" stroke-linecap="round" stroke-linejoin="round"/>
<path d="M18.1092 26.3452L18.1394 25.4112L17.8883 25.1902H14.1017L13.8707 25.4112L13.8908 26.3452L10.7269 24.8487L11.8318 25.7526L14.0716 27.3095H17.9184L20.1682 25.7526L21.2731 24.8487L18.1092 26.3452Z" fill="#C0AD9E" stroke="#C0AD9E" stroke-width="0.100439" stroke-linecap="round" stroke-linejoin="round"/>
<path d="M17.8682 23.1914L17.386 22.86H14.6039L14.1218 23.1914L13.8707 25.4111L14.1017 25.1902H17.8882L18.1393 25.4111L17.8682 23.1914Z" fill="#161616" stroke="#161616" stroke-width="0.100439" stroke-linecap="round" stroke-linejoin="round"/>
<path d="M27.9523 11.4701L28.806 7.37214L27.5304 3.56549L17.8682 10.7369L21.5844 13.8806L26.8374 15.4173L28.0025 14.0614L27.5003 13.6998L28.3038 12.9666L27.6811 12.4845L28.4846 11.8718L27.9523 11.4701Z" fill="#763D16" stroke="#763D16" stroke-width="0.100439" stroke-linecap="round" stroke-linejoin="round"/>
<path d="M3.19397 7.37251L4.0477 11.4704L3.50533 11.8722L4.30885 12.4849L3.69617 12.967L4.49968 13.7002L3.99749 14.0618L5.15254 15.4177L10.4055 13.881L14.1218 10.7372L4.45951 3.56586L3.19397 7.37251Z" fill="#763D16" stroke="#763D16" stroke-width="0.100439" stroke-linecap="round" stroke-linejoin="round"/>
<path d="M26.8374 15.4174L21.5845 13.8807L23.1814 16.2812L20.801 20.9014L23.9347 20.8612H28.6052L26.8374 15.4174Z" fill="#F6851B" stroke="#F6851B" stroke-width="0.100439" stroke-linecap="round" stroke-linejoin="round"/>
<path d="M10.4055 13.8807L5.15255 15.4174L3.40491 20.8612H8.0653L11.189 20.9014L8.81859 16.2812L10.4055 13.8807Z" fill="#F6851B" stroke="#F6851B" stroke-width="0.100439" stroke-linecap="round" stroke-linejoin="round"/>
<path d="M17.5367 16.5324L17.8682 10.737L19.3948 6.60895H12.6152L14.1218 10.737L14.4733 16.5324L14.5938 18.3604L14.6039 22.86H17.386L17.4061 18.3604L17.5367 16.5324Z" fill="#F6851B" stroke="#F6851B" stroke-width="0.100439" stroke-linecap="round" stroke-linejoin="round"/>
</svg>
