<svg width="32" height="32" viewBox="0 0 32 32" fill="none" xmlns="http://www.w3.org/2000/svg">
<path d="M6.5511 10.0255C11.7696 4.91615 20.2304 4.91615 25.4489 10.0255L26.077 10.6404C26.3379 10.8959 26.3379 11.3101 26.077 11.5655L23.9285 13.669C23.7981 13.7968 23.5866 13.7968 23.4561 13.669L22.5918 12.8228C18.9513 9.25844 13.0488 9.25844 9.40822 12.8228L8.48265 13.7291C8.35219 13.8568 8.14067 13.8568 8.0102 13.7291L5.86176 11.6255C5.60083 11.3701 5.60083 10.9559 5.86176 10.7004L6.5511 10.0255ZM29.8921 14.3758L31.8043 16.2479C32.0652 16.5034 32.0652 16.9176 31.8043 17.173L23.1824 25.6147C22.9214 25.8702 22.4984 25.8702 22.2375 25.6147C22.2375 25.6147 22.2375 25.6147 22.2375 25.6147L16.1182 19.6234C16.0529 19.5595 15.9472 19.5595 15.882 19.6234C15.882 19.6234 15.8819 19.6234 15.8819 19.6234L9.76278 25.6147C9.50186 25.8702 9.07882 25.8702 8.81789 25.6147C8.81789 25.6147 8.81789 25.6147 8.81789 25.6147L0.195754 17.1729C-0.0651701 16.9175 -0.0651701 16.5033 0.195754 16.2478L2.10788 14.3757C2.36881 14.1202 2.79185 14.1202 3.05277 14.3757L9.17216 20.3671C9.23739 20.4309 9.34315 20.4309 9.40838 20.3671C9.40838 20.3671 9.40838 20.367 9.40838 20.367L15.5275 14.3757C15.7884 14.1202 16.2114 14.1202 16.4724 14.3756C16.4724 14.3756 16.4724 14.3756 16.4724 14.3756L22.5917 20.367C22.657 20.4309 22.7627 20.4309 22.828 20.367L28.9472 14.3758C29.2082 14.1203 29.6312 14.1203 29.8921 14.3758Z" fill="#3B99FC"/>
</svg>
